<svg width="271" height="212" viewBox="0 0 271 212" fill="none" xmlns="http://www.w3.org/2000/svg">
<path d="M0.651978 76.624V62.0252L44.8503 2.55835H67.6191L24.3583 62.0252L13.7775 58.9447H87.5753V76.624H0.651978ZM51.1452 96.3123V76.624L51.8149 58.9447V41.3993H72.3068V96.3123H51.1452Z" fill="white"/>
<path d="M134.245 97.9195C126.566 97.9195 119.691 96.0445 113.619 92.2943C107.548 88.4549 102.771 82.9189 99.2883 75.6865C95.806 68.454 94.0648 59.7036 94.0648 49.4353C94.0648 39.1671 95.806 30.4167 99.2883 23.1842C102.771 15.9518 107.548 10.4605 113.619 6.71031C119.691 2.87086 126.566 0.951141 134.245 0.951141C142.013 0.951141 148.889 2.87086 154.871 6.71031C160.943 10.4605 165.72 15.9518 169.202 23.1842C172.684 30.4167 174.425 39.1671 174.425 49.4353C174.425 59.7036 172.684 68.454 169.202 75.6865C165.72 82.9189 160.943 88.4549 154.871 92.2943C148.889 96.0445 142.013 97.9195 134.245 97.9195ZM134.245 79.5706C137.906 79.5706 141.076 78.5437 143.754 76.4901C146.522 74.4364 148.665 71.1773 150.183 66.7129C151.791 62.2484 152.594 56.4892 152.594 49.4353C152.594 42.3815 151.791 36.6223 150.183 32.1578C148.665 27.6933 146.522 24.4343 143.754 22.3806C141.076 20.327 137.906 19.3001 134.245 19.3001C130.674 19.3001 127.504 20.327 124.736 22.3806C122.057 24.4343 119.914 27.6933 118.307 32.1578C116.789 36.6223 116.03 42.3815 116.03 49.4353C116.03 56.4892 116.789 62.2484 118.307 66.7129C119.914 71.1773 122.057 74.4364 124.736 76.4901C127.504 78.5437 130.674 79.5706 134.245 79.5706Z" fill="white"/>
<path d="M183.896 76.624V62.0252L228.094 2.55835H250.863L207.602 62.0252L197.022 58.9447H270.819V76.624H183.896ZM234.389 96.3123V76.624L235.059 58.9447V41.3993H255.551V96.3123H234.389Z" fill="white"/>
<path d="M60.6017 149.983C58.4217 149.983 56.4517 149.513 54.6917 148.573C52.9517 147.633 51.5817 146.343 50.5817 144.703C49.6017 143.043 49.1117 141.183 49.1117 139.123C49.1117 137.063 49.6017 135.213 50.5817 133.573C51.5817 131.913 52.9517 130.613 54.6917 129.673C56.4517 128.733 58.4217 128.263 60.6017 128.263C62.7817 128.263 64.7417 128.733 66.4817 129.673C68.2217 130.613 69.5917 131.913 70.5917 133.573C71.5917 135.213 72.0917 137.063 72.0917 139.123C72.0917 141.183 71.5917 143.043 70.5917 144.703C69.5917 146.343 68.2217 147.633 66.4817 148.573C64.7417 149.513 62.7817 149.983 60.6017 149.983ZM60.6017 145.843C61.8417 145.843 62.9617 145.563 63.9617 145.003C64.9617 144.423 65.7417 143.623 66.3017 142.603C66.8817 141.583 67.1717 140.423 67.1717 139.123C67.1717 137.823 66.8817 136.663 66.3017 135.643C65.7417 134.623 64.9617 133.833 63.9617 133.273C62.9617 132.693 61.8417 132.403 60.6017 132.403C59.3617 132.403 58.2417 132.693 57.2417 133.273C56.2417 133.833 55.4517 134.623 54.8717 135.643C54.3117 136.663 54.0317 137.823 54.0317 139.123C54.0317 140.423 54.3117 141.583 54.8717 142.603C55.4517 143.623 56.2417 144.423 57.2417 145.003C58.2417 145.563 59.3617 145.843 60.6017 145.843Z" fill="white"/>
<path d="M100.106 133.483V149.623H75.4756V133.483H80.1256V145.783H85.4956V133.483H90.1456V145.783H95.4556V133.483H100.106Z" fill="white"/>
<path d="M120.527 133.483V149.623H116.057V147.733C115.457 148.433 114.717 148.963 113.837 149.323C112.977 149.683 112.057 149.863 111.077 149.863C108.957 149.863 107.267 149.253 106.007 148.033C104.767 146.813 104.147 145.003 104.147 142.603V133.483H108.827V141.913C108.827 144.513 109.917 145.813 112.097 145.813C113.237 145.813 114.147 145.453 114.827 144.733C115.507 143.993 115.847 142.903 115.847 141.463V133.483H120.527Z" fill="white"/>
<path d="M134.317 134.593C135.857 134.593 137.207 134.913 138.367 135.553C139.527 136.173 140.417 137.053 141.037 138.193C141.677 139.333 141.997 140.653 141.997 142.153C141.997 143.693 141.617 145.063 140.857 146.263C140.117 147.443 139.077 148.363 137.737 149.023C136.397 149.663 134.877 149.983 133.177 149.983C130.357 149.983 128.137 149.083 126.517 147.283C124.917 145.463 124.117 142.803 124.117 139.303C124.117 136.063 124.817 133.483 126.217 131.563C127.637 129.623 129.807 128.353 132.727 127.753L140.407 126.223L141.037 130.243L134.257 131.593C132.417 131.953 131.047 132.553 130.147 133.393C129.267 134.233 128.747 135.423 128.587 136.963C129.287 136.203 130.127 135.623 131.107 135.223C132.087 134.803 133.157 134.593 134.317 134.593ZM133.207 146.353C134.407 146.353 135.367 145.963 136.087 145.183C136.827 144.403 137.197 143.413 137.197 142.213C137.197 140.993 136.827 140.023 136.087 139.303C135.367 138.583 134.407 138.223 133.207 138.223C131.987 138.223 131.007 138.583 130.267 139.303C129.527 140.023 129.157 140.993 129.157 142.213C129.157 143.433 129.537 144.433 130.297 145.213C131.057 145.973 132.027 146.353 133.207 146.353Z" fill="white"/>
<path d="M152.733 149.863C151.033 149.863 149.503 149.513 148.143 148.813C146.803 148.093 145.753 147.103 144.993 145.843C144.233 144.583 143.853 143.153 143.853 141.553C143.853 139.953 144.233 138.523 144.993 137.263C145.753 136.003 146.803 135.023 148.143 134.323C149.503 133.603 151.033 133.243 152.733 133.243C154.433 133.243 155.953 133.603 157.293 134.323C158.633 135.023 159.683 136.003 160.443 137.263C161.203 138.523 161.583 139.953 161.583 141.553C161.583 143.153 161.203 144.583 160.443 145.843C159.683 147.103 158.633 148.093 157.293 148.813C155.953 149.513 154.433 149.863 152.733 149.863ZM152.733 146.023C153.933 146.023 154.913 145.623 155.673 144.823C156.453 144.003 156.843 142.913 156.843 141.553C156.843 140.193 156.453 139.113 155.673 138.313C154.913 137.493 153.933 137.083 152.733 137.083C151.533 137.083 150.543 137.493 149.763 138.313C148.983 139.113 148.593 140.193 148.593 141.553C148.593 142.913 148.983 144.003 149.763 144.823C150.543 145.623 151.533 146.023 152.733 146.023Z" fill="white"/>
<path d="M179.322 133.483V149.623H174.642V143.623C173.282 144.303 171.782 144.643 170.142 144.643C167.962 144.643 166.312 144.153 165.192 143.173C164.092 142.173 163.542 140.633 163.542 138.553V133.483H168.222V138.253C168.222 139.233 168.472 139.943 168.972 140.383C169.492 140.823 170.232 141.043 171.192 141.043C172.412 141.043 173.562 140.783 174.642 140.263V133.483H179.322Z" fill="white"/>
<path d="M190.925 143.503H188.495V149.623H183.815V133.483H188.495V139.753H191.015L195.395 133.483H200.375L194.735 141.223L200.765 149.623H195.245L190.925 143.503Z" fill="white"/>
<path d="M218.855 133.483V149.623H214.385V147.763C213.225 149.163 211.545 149.863 209.345 149.863C207.825 149.863 206.445 149.523 205.205 148.843C203.985 148.163 203.025 147.193 202.325 145.933C201.625 144.673 201.275 143.213 201.275 141.553C201.275 139.893 201.625 138.433 202.325 137.173C203.025 135.913 203.985 134.943 205.205 134.263C206.445 133.583 207.825 133.243 209.345 133.243C211.405 133.243 213.015 133.893 214.175 135.193V133.483H218.855ZM210.155 146.023C211.335 146.023 212.315 145.623 213.095 144.823C213.875 144.003 214.265 142.913 214.265 141.553C214.265 140.193 213.875 139.113 213.095 138.313C212.315 137.493 211.335 137.083 210.155 137.083C208.955 137.083 207.965 137.493 207.185 138.313C206.405 139.113 206.015 140.193 206.015 141.553C206.015 142.913 206.405 144.003 207.185 144.823C207.965 145.623 208.955 146.023 210.155 146.023Z" fill="white"/>
<path d="M91.8193 171.193C93.7193 171.833 94.6693 173.113 94.6693 175.033C94.6693 176.493 94.1193 177.623 93.0193 178.423C91.9193 179.223 90.2793 179.623 88.0993 179.623H79.4893V163.483H87.7393C89.7593 163.483 91.3393 163.853 92.4793 164.593C93.6193 165.313 94.1893 166.333 94.1893 167.653C94.1893 168.453 93.9793 169.163 93.5593 169.783C93.1593 170.383 92.5793 170.853 91.8193 171.193ZM83.7793 170.113H87.3193C88.9593 170.113 89.7793 169.533 89.7793 168.373C89.7793 167.233 88.9593 166.663 87.3193 166.663H83.7793V170.113ZM87.7093 176.443C89.4293 176.443 90.2893 175.853 90.2893 174.673C90.2893 174.053 90.0893 173.603 89.6893 173.323C89.2893 173.023 88.6593 172.873 87.7993 172.873H83.7793V176.443H87.7093Z" fill="white"/>
<path d="M105.471 180.073C102.911 180.073 100.991 179.503 99.7114 178.363C98.4314 177.223 97.7914 175.543 97.7914 173.323V163.483H102.441V168.943C102.901 168.623 103.501 168.353 104.241 168.133C105.001 167.913 105.861 167.803 106.821 167.803C108.801 167.803 110.351 168.303 111.471 169.303C112.591 170.303 113.151 171.763 113.151 173.683C113.151 175.723 112.461 177.303 111.081 178.423C109.701 179.523 107.831 180.073 105.471 180.073ZM114.861 163.483H119.541V179.623H114.861V163.483ZM105.471 176.773C106.431 176.773 107.161 176.493 107.661 175.933C108.161 175.373 108.411 174.643 108.411 173.743C108.411 172.903 108.151 172.233 107.631 171.733C107.131 171.213 106.401 170.953 105.441 170.953C104.761 170.953 104.161 171.093 103.641 171.373C103.141 171.633 102.741 171.993 102.441 172.453V173.773C102.441 174.713 102.701 175.453 103.221 175.993C103.741 176.513 104.491 176.773 105.471 176.773Z" fill="white"/>
<path d="M148.651 163.483V179.623H124.021V163.483H128.671V175.783H134.041V163.483H138.691V175.783H144.001V163.483H148.651Z" fill="white"/>
<path d="M168.622 163.483V179.623H163.942V167.323H158.842L158.692 170.173C158.612 172.293 158.412 174.053 158.092 175.453C157.772 176.853 157.252 177.953 156.532 178.753C155.812 179.553 154.812 179.953 153.532 179.953C152.852 179.953 152.042 179.833 151.102 179.593L151.342 175.753C151.662 175.793 151.892 175.813 152.032 175.813C152.732 175.813 153.252 175.563 153.592 175.063C153.952 174.543 154.192 173.893 154.312 173.113C154.432 172.313 154.522 171.263 154.582 169.963L154.822 163.483H168.622Z" fill="white"/>
<path d="M189.412 163.483V179.623H184.942V177.763C183.782 179.163 182.102 179.863 179.902 179.863C178.382 179.863 177.002 179.523 175.762 178.843C174.542 178.163 173.582 177.193 172.882 175.933C172.182 174.673 171.832 173.213 171.832 171.553C171.832 169.893 172.182 168.433 172.882 167.173C173.582 165.913 174.542 164.943 175.762 164.263C177.002 163.583 178.382 163.243 179.902 163.243C181.962 163.243 183.572 163.893 184.732 165.193V163.483H189.412ZM180.712 176.023C181.892 176.023 182.872 175.623 183.652 174.823C184.432 174.003 184.822 172.913 184.822 171.553C184.822 170.193 184.432 169.113 183.652 168.313C182.872 167.493 181.892 167.083 180.712 167.083C179.512 167.083 178.522 167.493 177.742 168.313C176.962 169.113 176.572 170.193 176.572 171.553C176.572 172.913 176.962 174.003 177.742 174.823C178.522 175.623 179.512 176.023 180.712 176.023Z" fill="white"/>
<path d="M193.145 158.623H198.725L197.795 172.333H194.075L193.145 158.623ZM195.935 179.863C195.115 179.863 194.425 179.603 193.865 179.083C193.325 178.543 193.055 177.893 193.055 177.133C193.055 176.373 193.325 175.743 193.865 175.243C194.405 174.723 195.095 174.463 195.935 174.463C196.775 174.463 197.465 174.723 198.005 175.243C198.545 175.743 198.815 176.373 198.815 177.133C198.815 177.893 198.535 178.543 197.975 179.083C197.435 179.603 196.755 179.863 195.935 179.863Z" fill="white"/>
<path d="M36.2561 198.607H32.7681V208.623H31.4401V198.607H27.9521V197.423H36.2561V198.607Z" fill="white"/>
<path d="M35.8774 201.215C36.2828 200.97 36.7521 200.789 37.2854 200.671C37.8294 200.554 38.3948 200.495 38.9814 200.495C39.5361 200.495 39.9788 200.57 40.3094 200.719C40.6508 200.869 40.9068 201.066 41.0774 201.311C41.2588 201.546 41.3761 201.807 41.4294 202.095C41.4934 202.383 41.5254 202.671 41.5254 202.959C41.5254 203.599 41.5094 204.223 41.4774 204.831C41.4454 205.439 41.4294 206.015 41.4294 206.559C41.4294 206.954 41.4454 207.327 41.4774 207.679C41.5094 208.031 41.5681 208.357 41.6534 208.655H40.7094L40.3734 207.535H40.2934C40.1974 207.685 40.0748 207.834 39.9254 207.983C39.7868 208.122 39.6161 208.25 39.4134 208.367C39.2108 208.474 38.9761 208.565 38.7094 208.639C38.4428 208.714 38.1388 208.751 37.7974 208.751C37.4561 208.751 37.1361 208.698 36.8374 208.591C36.5494 208.485 36.2988 208.335 36.0854 208.143C35.8721 207.941 35.7014 207.701 35.5734 207.423C35.4561 207.146 35.3974 206.831 35.3974 206.479C35.3974 206.01 35.4934 205.621 35.6854 205.311C35.8774 204.991 36.1441 204.741 36.4854 204.559C36.8374 204.367 37.2534 204.234 37.7334 204.159C38.2241 204.074 38.7628 204.031 39.3494 204.031C39.4988 204.031 39.6428 204.031 39.7814 204.031C39.9308 204.031 40.0801 204.042 40.2294 204.063C40.2614 203.743 40.2774 203.455 40.2774 203.199C40.2774 202.613 40.1601 202.202 39.9254 201.967C39.6908 201.733 39.2641 201.615 38.6454 201.615C38.4641 201.615 38.2668 201.631 38.0534 201.663C37.8508 201.685 37.6374 201.722 37.4134 201.775C37.2001 201.818 36.9921 201.877 36.7894 201.951C36.5974 202.015 36.4268 202.09 36.2774 202.175L35.8774 201.215ZM38.1494 207.631C38.4481 207.631 38.7148 207.594 38.9494 207.519C39.1841 207.434 39.3868 207.333 39.5574 207.215C39.7281 207.087 39.8668 206.949 39.9734 206.799C40.0908 206.65 40.1761 206.506 40.2294 206.367V205.039C40.0801 205.029 39.9254 205.023 39.7654 205.023C39.6161 205.013 39.4668 205.007 39.3174 205.007C38.9868 205.007 38.6614 205.029 38.3414 205.071C38.0321 205.103 37.7548 205.173 37.5094 205.279C37.2748 205.375 37.0828 205.514 36.9334 205.695C36.7948 205.866 36.7254 206.085 36.7254 206.351C36.7254 206.725 36.8588 207.034 37.1254 207.279C37.3921 207.514 37.7334 207.631 38.1494 207.631Z" fill="white"/>
<path d="M45.9589 205.023H45.2229V208.623H43.9429V200.623H45.2229V204.239L45.9109 204.015L48.4709 200.623H49.8629L47.3829 203.839L46.7109 204.367L47.5429 205.007L50.2149 208.623H48.6309L45.9589 205.023Z" fill="white"/>
<path d="M50.9637 204.623C50.9637 203.269 51.2623 202.234 51.8597 201.519C52.4677 200.794 53.337 200.431 54.4677 200.431C55.065 200.431 55.5823 200.533 56.0197 200.735C56.4677 200.927 56.8357 201.21 57.1237 201.583C57.4117 201.946 57.625 202.389 57.7637 202.911C57.9023 203.423 57.9717 203.994 57.9717 204.623C57.9717 205.978 57.6677 207.018 57.0597 207.743C56.4623 208.458 55.5983 208.815 54.4677 208.815C53.8703 208.815 53.3477 208.719 52.8997 208.527C52.4623 208.325 52.0997 208.042 51.8117 207.679C51.5237 207.306 51.3103 206.863 51.1717 206.351C51.033 205.829 50.9637 205.253 50.9637 204.623ZM52.2917 204.623C52.2917 205.029 52.329 205.418 52.4037 205.791C52.489 206.165 52.617 206.49 52.7877 206.767C52.9583 207.045 53.1823 207.269 53.4597 207.439C53.737 207.61 54.073 207.695 54.4677 207.695C55.9183 207.706 56.6437 206.682 56.6437 204.623C56.6437 204.207 56.601 203.813 56.5157 203.439C56.441 203.066 56.3183 202.741 56.1477 202.463C55.977 202.186 55.753 201.967 55.4757 201.807C55.1983 201.637 54.8623 201.551 54.4677 201.551C53.017 201.541 52.2917 202.565 52.2917 204.623Z" fill="white"/>
<path d="M64.9818 203.887L65.0298 202.895H64.9818L64.3258 203.919L60.7258 208.623H59.9898V200.623H61.2698V205.503L61.2218 206.447H61.2858L61.9098 205.455L65.5098 200.623H66.2618V208.623H64.9818V203.887ZM61.8298 197.391C61.9365 197.882 62.1178 198.223 62.3738 198.415C62.6405 198.607 62.9445 198.703 63.2858 198.703C63.6271 198.703 63.9311 198.602 64.1978 198.399C64.4645 198.197 64.6458 197.866 64.7418 197.407L65.7018 197.711C65.6058 198.33 65.3285 198.805 64.8698 199.135C64.4218 199.466 63.8831 199.631 63.2538 199.631C62.9658 199.631 62.6778 199.594 62.3898 199.519C62.1125 199.445 61.8618 199.333 61.6378 199.183C61.4138 199.034 61.2218 198.842 61.0618 198.607C60.9018 198.373 60.7951 198.095 60.7418 197.775L61.8298 197.391Z" fill="white"/>
<path d="M78.4458 208.095C78.1258 208.33 77.7471 208.506 77.3098 208.623C76.8725 208.751 76.4138 208.815 75.9338 208.815C75.3151 208.815 74.7925 208.719 74.3658 208.527C73.9391 208.325 73.5871 208.042 73.3098 207.679C73.0431 207.306 72.8458 206.863 72.7178 206.351C72.6005 205.829 72.5418 205.253 72.5418 204.623C72.5418 203.269 72.8405 202.234 73.4378 201.519C74.0351 200.794 74.8938 200.431 76.0138 200.431C76.5258 200.431 76.9578 200.474 77.3098 200.559C77.6725 200.634 77.9978 200.746 78.2858 200.895L77.9178 201.999C77.6725 201.861 77.4005 201.754 77.1018 201.679C76.8031 201.594 76.4831 201.551 76.1418 201.551C74.6271 201.551 73.8698 202.575 73.8698 204.623C73.8698 205.029 73.9071 205.418 73.9818 205.791C74.0671 206.154 74.2005 206.479 74.3818 206.767C74.5738 207.045 74.8191 207.269 75.1178 207.439C75.4271 207.61 75.8058 207.695 76.2538 207.695C76.6378 207.695 76.9791 207.637 77.2778 207.519C77.5871 207.402 77.8378 207.269 78.0298 207.119L78.4458 208.095Z" fill="white"/>
<path d="M85.0626 201.743H82.5506V208.623H81.2706V201.743H78.7586V200.623H85.0626V201.743Z" fill="white"/>
<path d="M86.3336 200.623H87.2136L87.4536 201.583H87.5176C87.7629 201.21 88.0776 200.927 88.4616 200.735C88.8562 200.533 89.3042 200.431 89.8056 200.431C90.8722 200.431 91.6669 200.746 92.1896 201.375C92.7122 202.005 92.9736 203.034 92.9736 204.463C92.9736 205.135 92.8829 205.743 92.7016 206.287C92.5309 206.821 92.2856 207.274 91.9656 207.647C91.6456 208.021 91.2562 208.309 90.7976 208.511C90.3496 208.714 89.8482 208.815 89.2936 208.815C88.8989 208.815 88.5842 208.789 88.3496 208.735C88.1256 208.693 87.8802 208.613 87.6136 208.495V211.823H86.3336V200.623ZM89.5656 201.551C89.0216 201.551 88.5896 201.695 88.2696 201.983C87.9602 202.261 87.7416 202.687 87.6136 203.263V207.231C87.8056 207.381 88.0242 207.498 88.2696 207.583C88.5149 207.658 88.8402 207.695 89.2456 207.695C89.9816 207.695 90.5629 207.423 90.9896 206.879C91.4269 206.325 91.6456 205.514 91.6456 204.447C91.6456 204.01 91.6082 203.615 91.5336 203.263C91.4589 202.901 91.3362 202.597 91.1656 202.351C91.0056 202.095 90.7922 201.898 90.5256 201.759C90.2696 201.621 89.9496 201.551 89.5656 201.551Z" fill="white"/>
<path d="M94.8618 201.215C95.2671 200.97 95.7365 200.789 96.2698 200.671C96.8138 200.554 97.3791 200.495 97.9658 200.495C98.5205 200.495 98.9631 200.57 99.2938 200.719C99.6351 200.869 99.8911 201.066 100.062 201.311C100.243 201.546 100.36 201.807 100.414 202.095C100.478 202.383 100.51 202.671 100.51 202.959C100.51 203.599 100.494 204.223 100.462 204.831C100.43 205.439 100.414 206.015 100.414 206.559C100.414 206.954 100.43 207.327 100.462 207.679C100.494 208.031 100.552 208.357 100.638 208.655H99.6938L99.3578 207.535H99.2778C99.1818 207.685 99.0591 207.834 98.9098 207.983C98.7711 208.122 98.6005 208.25 98.3978 208.367C98.1951 208.474 97.9605 208.565 97.6938 208.639C97.4271 208.714 97.1231 208.751 96.7818 208.751C96.4405 208.751 96.1205 208.698 95.8218 208.591C95.5338 208.485 95.2831 208.335 95.0698 208.143C94.8565 207.941 94.6858 207.701 94.5578 207.423C94.4405 207.146 94.3818 206.831 94.3818 206.479C94.3818 206.01 94.4778 205.621 94.6698 205.311C94.8618 204.991 95.1285 204.741 95.4698 204.559C95.8218 204.367 96.2378 204.234 96.7178 204.159C97.2085 204.074 97.7471 204.031 98.3338 204.031C98.4831 204.031 98.6271 204.031 98.7658 204.031C98.9151 204.031 99.0645 204.042 99.2138 204.063C99.2458 203.743 99.2618 203.455 99.2618 203.199C99.2618 202.613 99.1445 202.202 98.9098 201.967C98.6751 201.733 98.2485 201.615 97.6298 201.615C97.4485 201.615 97.2511 201.631 97.0378 201.663C96.8351 201.685 96.6218 201.722 96.3978 201.775C96.1845 201.818 95.9765 201.877 95.7738 201.951C95.5818 202.015 95.4111 202.09 95.2618 202.175L94.8618 201.215ZM97.1338 207.631C97.4325 207.631 97.6991 207.594 97.9338 207.519C98.1685 207.434 98.3711 207.333 98.5418 207.215C98.7125 207.087 98.8511 206.949 98.9578 206.799C99.0751 206.65 99.1605 206.506 99.2138 206.367V205.039C99.0645 205.029 98.9098 205.023 98.7498 205.023C98.6005 205.013 98.4511 205.007 98.3018 205.007C97.9711 205.007 97.6458 205.029 97.3258 205.071C97.0165 205.103 96.7391 205.173 96.4938 205.279C96.2591 205.375 96.0671 205.514 95.9178 205.695C95.7791 205.866 95.7098 206.085 95.7098 206.351C95.7098 206.725 95.8431 207.034 96.1098 207.279C96.3765 207.514 96.7178 207.631 97.1338 207.631Z" fill="white"/>
<path d="M107.823 205.087H104.207V208.623H102.927V200.623H104.207V203.967H107.823V200.623H109.103V208.623H107.823V205.087Z" fill="white"/>
<path d="M116.56 203.887L116.608 202.895H116.56L115.904 203.919L112.304 208.623H111.568V200.623H112.848V205.503L112.8 206.447H112.864L113.488 205.455L117.088 200.623H117.84V208.623H116.56V203.887Z" fill="white"/>
<path d="M127.486 210.655H126.622L126.382 208.623H120.302V200.623H121.582V207.503H125.054V200.623H126.334V207.503H127.486V210.655Z" fill="white"/>
<path d="M130.348 207.503C130.743 207.567 131.121 207.599 131.484 207.599C132.156 207.599 132.625 207.471 132.892 207.215C133.159 206.949 133.292 206.575 133.292 206.095C133.292 205.669 133.159 205.317 132.892 205.039C132.636 204.762 132.183 204.623 131.532 204.623C131.351 204.623 131.153 204.629 130.94 204.639C130.727 204.65 130.529 204.682 130.348 204.735V207.503ZM130.348 203.679C130.604 203.637 130.849 203.61 131.084 203.599C131.319 203.578 131.543 203.567 131.756 203.567C132.3 203.567 132.753 203.631 133.116 203.759C133.489 203.877 133.788 204.042 134.012 204.255C134.236 204.469 134.391 204.725 134.476 205.023C134.572 205.311 134.62 205.621 134.62 205.951C134.62 206.922 134.348 207.626 133.804 208.063C133.271 208.501 132.401 208.719 131.196 208.719C130.513 208.719 129.804 208.687 129.068 208.623V200.623H130.348V203.679ZM135.884 200.623H137.164V208.623H135.884V200.623Z" fill="white"/>
<path d="M148.792 205.087H145.176V208.623H143.896V200.623H145.176V203.967H148.792V200.623H150.072V208.623H148.792V205.087Z" fill="white"/>
<path d="M158.377 207.983C158.057 208.239 157.651 208.442 157.161 208.591C156.681 208.741 156.169 208.815 155.625 208.815C155.017 208.815 154.489 208.719 154.041 208.527C153.593 208.325 153.225 208.042 152.937 207.679C152.649 207.306 152.435 206.863 152.297 206.351C152.158 205.839 152.089 205.263 152.089 204.623C152.089 203.258 152.393 202.218 153.001 201.503C153.609 200.789 154.478 200.431 155.609 200.431C155.971 200.431 156.334 200.474 156.697 200.559C157.059 200.634 157.385 200.783 157.673 201.007C157.961 201.231 158.195 201.551 158.377 201.967C158.558 202.373 158.649 202.911 158.649 203.583C158.649 203.935 158.617 204.325 158.553 204.751H153.417C153.417 205.221 153.465 205.637 153.561 205.999C153.657 206.362 153.806 206.671 154.009 206.927C154.211 207.173 154.473 207.365 154.793 207.503C155.123 207.631 155.523 207.695 155.993 207.695C156.355 207.695 156.718 207.631 157.081 207.503C157.443 207.375 157.715 207.226 157.897 207.055L158.377 207.983ZM155.625 201.551C154.995 201.551 154.489 201.717 154.105 202.047C153.731 202.378 153.507 202.943 153.433 203.743H157.401C157.401 202.933 157.246 202.367 156.937 202.047C156.627 201.717 156.19 201.551 155.625 201.551Z" fill="white"/>
<path d="M170.383 208.095C170.063 208.33 169.685 208.506 169.247 208.623C168.81 208.751 168.351 208.815 167.871 208.815C167.253 208.815 166.73 208.719 166.303 208.527C165.877 208.325 165.525 208.042 165.247 207.679C164.981 207.306 164.783 206.863 164.655 206.351C164.538 205.829 164.479 205.253 164.479 204.623C164.479 203.269 164.778 202.234 165.375 201.519C165.973 200.794 166.831 200.431 167.951 200.431C168.463 200.431 168.895 200.474 169.247 200.559C169.61 200.634 169.935 200.746 170.223 200.895L169.855 201.999C169.61 201.861 169.338 201.754 169.039 201.679C168.741 201.594 168.421 201.551 168.079 201.551C166.565 201.551 165.807 202.575 165.807 204.623C165.807 205.029 165.845 205.418 165.919 205.791C166.005 206.154 166.138 206.479 166.319 206.767C166.511 207.045 166.757 207.269 167.055 207.439C167.365 207.61 167.743 207.695 168.191 207.695C168.575 207.695 168.917 207.637 169.215 207.519C169.525 207.402 169.775 207.269 169.967 207.119L170.383 208.095Z" fill="white"/>
<path d="M174.279 205.807L174.727 207.343H174.807L175.159 205.791L176.711 200.623H178.007L175.639 207.807C175.458 208.33 175.277 208.837 175.095 209.327C174.925 209.818 174.733 210.255 174.519 210.639C174.306 211.023 174.066 211.327 173.799 211.551C173.533 211.786 173.223 211.903 172.871 211.903C172.487 211.903 172.173 211.85 171.927 211.743L172.151 210.639C172.29 210.693 172.423 210.719 172.551 210.719C172.85 210.719 173.138 210.559 173.415 210.239C173.693 209.93 173.922 209.391 174.103 208.623L170.887 200.623H172.359L174.279 205.807Z" fill="white"/>
<path d="M189.844 210.655H188.98L188.74 208.623H179.38V200.623H180.66V207.503H183.396V200.623H184.676V207.503H187.412V200.623H188.692V207.503H189.844V210.655Z" fill="white"/>
<path d="M197.267 207.983C196.947 208.239 196.542 208.442 196.051 208.591C195.571 208.741 195.059 208.815 194.515 208.815C193.907 208.815 193.379 208.719 192.931 208.527C192.483 208.325 192.115 208.042 191.827 207.679C191.539 207.306 191.326 206.863 191.187 206.351C191.049 205.839 190.979 205.263 190.979 204.623C190.979 203.258 191.283 202.218 191.891 201.503C192.499 200.789 193.369 200.431 194.499 200.431C194.862 200.431 195.225 200.474 195.587 200.559C195.95 200.634 196.275 200.783 196.563 201.007C196.851 201.231 197.086 201.551 197.267 201.967C197.449 202.373 197.539 202.911 197.539 203.583C197.539 203.935 197.507 204.325 197.443 204.751H192.307C192.307 205.221 192.355 205.637 192.451 205.999C192.547 206.362 192.697 206.671 192.899 206.927C193.102 207.173 193.363 207.365 193.683 207.503C194.014 207.631 194.414 207.695 194.883 207.695C195.246 207.695 195.609 207.631 195.971 207.503C196.334 207.375 196.606 207.226 196.787 207.055L197.267 207.983ZM194.515 201.551C193.886 201.551 193.379 201.717 192.995 202.047C192.622 202.378 192.398 202.943 192.323 203.743H196.291C196.291 202.933 196.137 202.367 195.827 202.047C195.518 201.717 195.081 201.551 194.515 201.551Z" fill="white"/>
<path d="M204.836 208.095C204.516 208.33 204.138 208.506 203.7 208.623C203.263 208.751 202.804 208.815 202.324 208.815C201.706 208.815 201.183 208.719 200.756 208.527C200.33 208.325 199.978 208.042 199.7 207.679C199.434 207.306 199.236 206.863 199.108 206.351C198.991 205.829 198.932 205.253 198.932 204.623C198.932 203.269 199.231 202.234 199.828 201.519C200.426 200.794 201.284 200.431 202.404 200.431C202.916 200.431 203.348 200.474 203.7 200.559C204.063 200.634 204.388 200.746 204.676 200.895L204.308 201.999C204.063 201.861 203.791 201.754 203.492 201.679C203.194 201.594 202.874 201.551 202.532 201.551C201.018 201.551 200.26 202.575 200.26 204.623C200.26 205.029 200.298 205.418 200.372 205.791C200.458 206.154 200.591 206.479 200.772 206.767C200.964 207.045 201.21 207.269 201.508 207.439C201.818 207.61 202.196 207.695 202.644 207.695C203.028 207.695 203.37 207.637 203.668 207.519C203.978 207.402 204.228 207.269 204.42 207.119L204.836 208.095Z" fill="white"/>
<path d="M211.453 201.743H208.941V208.623H207.661V201.743H205.149V200.623H211.453V201.743Z" fill="white"/>
<path d="M212.724 200.639C213.098 200.618 213.487 200.591 213.892 200.559C214.308 200.527 214.82 200.511 215.428 200.511C216.484 200.511 217.242 200.677 217.7 201.007C218.159 201.327 218.388 201.818 218.388 202.479C218.388 202.853 218.276 203.221 218.052 203.583C217.839 203.935 217.482 204.197 216.98 204.367V204.431C217.61 204.549 218.052 204.767 218.308 205.087C218.564 205.407 218.692 205.834 218.692 206.367C218.692 207.199 218.394 207.802 217.796 208.175C217.199 208.549 216.303 208.735 215.108 208.735C214.66 208.735 214.244 208.719 213.86 208.687C213.476 208.666 213.098 208.639 212.724 208.607V200.639ZM214.004 207.551C214.207 207.573 214.404 207.589 214.596 207.599C214.799 207.61 215.034 207.615 215.3 207.615C216.015 207.615 216.543 207.514 216.884 207.311C217.236 207.109 217.412 206.762 217.412 206.271C217.412 205.887 217.263 205.578 216.964 205.343C216.676 205.098 216.159 204.975 215.412 204.975H214.004V207.551ZM215.572 203.999C215.764 203.999 215.951 203.967 216.132 203.903C216.314 203.839 216.474 203.754 216.612 203.647C216.762 203.53 216.879 203.397 216.964 203.247C217.06 203.098 217.108 202.938 217.108 202.767C217.108 202.341 216.98 202.047 216.724 201.887C216.468 201.717 216.02 201.631 215.38 201.631C215.039 201.631 214.767 201.637 214.564 201.647C214.372 201.658 214.186 201.669 214.004 201.679V203.999H215.572Z" fill="white"/>
<path d="M223.061 205.807L223.509 207.343H223.589L223.941 205.791L225.493 200.623H226.789L224.421 207.807C224.239 208.33 224.058 208.837 223.877 209.327C223.706 209.818 223.514 210.255 223.301 210.639C223.087 211.023 222.847 211.327 222.581 211.551C222.314 211.786 222.005 211.903 221.653 211.903C221.269 211.903 220.954 211.85 220.709 211.743L220.933 210.639C221.071 210.693 221.205 210.719 221.333 210.719C221.631 210.719 221.919 210.559 222.197 210.239C222.474 209.93 222.703 209.391 222.885 208.623L219.669 200.623H221.141L223.061 205.807Z" fill="white"/>
<path d="M233.908 207.983C233.588 208.239 233.183 208.442 232.692 208.591C232.212 208.741 231.7 208.815 231.156 208.815C230.548 208.815 230.02 208.719 229.572 208.527C229.124 208.325 228.756 208.042 228.468 207.679C228.18 207.306 227.967 206.863 227.828 206.351C227.689 205.839 227.62 205.263 227.62 204.623C227.62 203.258 227.924 202.218 228.532 201.503C229.14 200.789 230.009 200.431 231.14 200.431C231.503 200.431 231.865 200.474 232.228 200.559C232.591 200.634 232.916 200.783 233.204 201.007C233.492 201.231 233.727 201.551 233.908 201.967C234.089 202.373 234.18 202.911 234.18 203.583C234.18 203.935 234.148 204.325 234.084 204.751H228.948C228.948 205.221 228.996 205.637 229.092 205.999C229.188 206.362 229.337 206.671 229.54 206.927C229.743 207.173 230.004 207.365 230.324 207.503C230.655 207.631 231.055 207.695 231.524 207.695C231.887 207.695 232.249 207.631 232.612 207.503C232.975 207.375 233.247 207.226 233.428 207.055L233.908 207.983ZM231.156 201.551C230.527 201.551 230.02 201.717 229.636 202.047C229.263 202.378 229.039 202.943 228.964 203.743H232.932C232.932 202.933 232.777 202.367 232.468 202.047C232.159 201.717 231.721 201.551 231.156 201.551Z" fill="white"/>
<path d="M241.297 201.743H238.785V208.623H237.505V201.743H234.993V200.623H241.297V201.743Z" fill="white"/>
</svg>
